General
Complete name                            : Wedding_Crashers_2005_WS_Uncorked_NTSC_DVD9.iso
Format                                   : ISO 9660 / UDF (DVD-Video)
File size                                : 7.91 GiB
Duration                                 : 1 h 59 min
Overall bit rate mode                    : Variable
Overall bit rate                         : 9 486 kb/s
Released date                            : 2006-01-03
Label                                    : WEDDING_CRASHERS

Video
ID                                       : 224 (0xE0)
Format                                   : MPEG Video
Format version                           : Version 2
Format profile                           : Main@Main
Format settings                          : BVOP
Format settings, BVOP                    : Yes
Format settings, Matrix                  : Custom
Format settings, GOP                     : M=3, N=15
Duration                                 : 1 h 59 min
Bit rate mode                            : Variable
Bit rate                                 : 5 800 kb/s
Maximum bit rate                         : 9 800 kb/s
Width                                    : 720 pixels
Height                                   : 480 pixels
Display aspect ratio                     : 16:9
Frame rate                               : 29.970 (30000/1001) FPS
Standard                                 : NTSC
Color space                              : YUV
Chroma subsampling                       : 4:2:0
Bit depth                                : 8 bits
Scan type                                : Interlaced
Scan order                               : Bottom Field First
Compression mode                         : Lossy
Bits/(Pixel*Frame)                       : 0.560
Time code first frame                    : 00:00:00:00
Time code source                         : Group of pictures header
GOP, Open/Closed                         : Open
Stream size                              : 4.84 GiB (61%)

Audio #1
ID                                       : 189 (0xBD) / 128 (0x80)
Format                                   : AC-3
Format/Info                              : Audio Coding 3
Commercial name                          : Dolby Digital
Muxing mode                              : DVD-Video
Duration                                 : 1 h 59 min
Bit rate mode                            : Constant
Bit rate                                 : 448 kb/s
Channel(s)                               : 6 channels
Channel layout                           : L R C LFE Ls Rs
Sampling rate                            : 48.0 kHz
Frame rate                               : 31.250 FPS (1536 SPF)
Compression mode                         : Lossy
Stream size                              : 382 MiB (5%)
Language                                 : English
Service kind                             : Complete Main

Audio #2
ID                                       : 189 (0xBD) / 129 (0x81)
Format                                   : AC-3
Format/Info                              : Audio Coding 3
Commercial name                          : Dolby Digital
Muxing mode                              : DVD-Video
Duration                                 : 1 h 59 min
Bit rate mode                            : Constant
Bit rate                                 : 192 kb/s
Channel(s)                               : 2 channels
Channel layout                           : L R
Sampling rate                            : 48.0 kHz
Frame rate                               : 31.250 FPS (1536 SPF)
Compression mode                         : Lossy
Stream size                              : 164 MiB (2%)
Title                                    : Audio Commentary with Director David Dobkin
Language                                 : English
Service kind                             : Commentary

Audio #3
ID                                       : 189 (0xBD) / 130 (0x82)
Format                                   : AC-3
Format/Info                              : Audio Coding 3
Commercial name                          : Dolby Digital
Muxing mode                              : DVD-Video
Duration                                 : 1 h 59 min
Bit rate mode                            : Constant
Bit rate                                 : 192 kb/s
Channel(s)                               : 2 channels
Channel layout                           : L R
Sampling rate                            : 48.0 kHz
Frame rate                               : 31.250 FPS (1536 SPF)
Compression mode                         : Lossy
Stream size                              : 164 MiB (2%)
Title                                    : Audio Commentary with Owen Wilson and Vince Vaughn
Language                                 : English
Service kind                             : Commentary

Audio #4
ID                                       : 189 (0xBD) / 131 (0x83)
Format                                   : AC-3
Format/Info                              : Audio Coding 3
Commercial name                          : Dolby Digital
Muxing mode                              : DVD-Video
Duration                                 : 1 h 59 min
Bit rate mode                            : Constant
Bit rate                                 : 384 kb/s
Channel(s)                               : 6 channels
Channel layout                           : L R C LFE Ls Rs
Sampling rate                            : 48.0 kHz
Frame rate                               : 31.250 FPS (1536 SPF)
Compression mode                         : Lossy
Stream size                              : 328 MiB (4%)
Language                                 : French
Service kind                             : Complete Main

Text #1
ID                                       : 189 (0xBD) / 32 (0x20)
Format                                   : RLE
Format/Info                              : Run-length encoding
Muxing mode                              : DVD-Video
Duration                                 : 1 h 59 min
Language                                 : English

Text #2
ID                                       : 189 (0xBD) / 33 (0x21)
Format                                   : RLE
Format/Info                              : Run-length encoding
Muxing mode                              : DVD-Video
Duration                                 : 1 h 59 min
Language                                 : French

Text #3
ID                                       : 189 (0xBD) / 34 (0x22)
Format                                   : RLE
Format/Info                              : Run-length encoding
Muxing mode                              : DVD-Video
Duration                                 : 1 h 59 min
Language                                 : Spanish